<svg width="609" height="237" viewBox="0 0 609 237" fill="none" xmlns="http://www.w3.org/2000/svg">
<g filter="url(#filter0_f_138_11781)">
<circle cx="507.5" cy="88.5" r="13.5" fill="white"/>
</g>
<g filter="url(#filter1_f_138_11781)">
<circle cx="511.5" cy="91.5" r="4.5" fill="#C6FF00"/>
</g>
<path d="M87 227C87 223.134 90.134 220 94 220C97.866 220 101 223.134 101 227V237H87V227Z" fill="#C6FF00" fill-opacity="0.09"/>
<path d="M87 231C87 227.134 90.134 224 94 224C97.866 224 101 227.134 101 231V237H87V231Z" fill="#C6FF00"/>
<path d="M441 137L441.52 137.854L441.523 137.852L441 137ZM476 115.5L476.523 116.352L476.536 116.345L476.548 116.337L476 115.5ZM518 88L506.471 88.6476L512.796 98.3081L518 88ZM286 160.75L285.723 159.789L286 160.75ZM422.555 148.228L423.075 149.082L422.555 148.228ZM382.383 143.668L381.809 144.487L382.383 143.668ZM309.388 150.469L308.762 149.689L309.388 150.469ZM294.011 158.444L293.734 157.483L294.011 158.444ZM155.707 159.614L155.438 158.651L155.707 159.614ZM91.7684 178.463L155.975 160.577L155.438 158.651L91.2316 176.537L91.7684 178.463ZM167.514 159H203.5V157H167.514V159ZM203.5 159H242.557V157H203.5V159ZM310.014 151.248L323.215 140.648L321.963 139.088L308.762 149.689L310.014 151.248ZM381.809 144.487L389.427 149.819L390.573 148.181L382.956 142.849L381.809 144.487ZM423.075 149.082L441.52 137.854L440.48 136.146L422.035 147.373L423.075 149.082ZM441.523 137.852L476.523 116.352L475.477 114.648L440.477 136.148L441.523 137.852ZM476.548 116.337L511.018 93.7667L509.923 92.0935L475.452 114.663L476.548 116.337ZM349.274 138.744L351.016 139.767L352.028 138.042L350.287 137.02L349.274 138.744ZM282.702 162.74L286.277 161.711L285.723 159.789L282.148 160.818L282.702 162.74ZM286.277 161.711L294.287 159.405L293.734 157.483L285.723 159.789L286.277 161.711ZM351.016 139.767C355.71 142.522 361.318 143.268 366.569 141.836L366.043 139.906C361.311 141.197 356.258 140.525 352.028 138.042L351.016 139.767ZM389.521 149.878C400.046 155.619 412.833 155.316 423.075 149.082L422.035 147.373C412.403 153.236 400.377 153.521 390.479 148.122L389.521 149.878ZM382.956 142.849C378.035 139.404 371.838 138.326 366.043 139.906L366.569 141.836C371.791 140.412 377.375 141.383 381.809 144.487L382.956 142.849ZM308.762 149.689C304.319 153.257 299.21 155.906 293.734 157.483L294.287 159.405C300.018 157.755 305.364 154.982 310.014 151.248L308.762 149.689ZM256.588 161.605C264.937 164.816 274.105 165.215 282.702 162.74L282.148 160.818C273.971 163.172 265.248 162.793 257.306 159.738L256.588 161.605ZM242.557 159C247.354 159 252.11 159.883 256.588 161.605L257.306 159.738C252.599 157.928 247.6 157 242.557 157V159ZM323.215 140.648C330.664 134.666 341.035 133.908 349.274 138.744L350.287 137.02C341.331 131.763 330.059 132.586 321.963 139.088L323.215 140.648ZM155.975 160.577C159.732 159.531 163.614 159 167.514 159V157C163.433 157 159.37 157.555 155.438 158.651L155.975 160.577Z" fill="url(#paint0_linear_138_11781)"/>
<path d="M122 219C122 215.134 125.134 212 129 212C132.866 212 136 215.134 136 219V237H122V219Z" fill="#C6FF00" fill-opacity="0.09"/>
<path d="M122 224C122 220.134 125.134 217 129 217C132.866 217 136 220.134 136 224V237H122V224Z" fill="#C6FF00"/>
<path d="M157 208C157 204.134 160.134 201 164 201C167.866 201 171 204.134 171 208V237H157V208Z" fill="#C6FF00" fill-opacity="0.09"/>
<path d="M157 216C157 212.134 160.134 209 164 209C167.866 209 171 212.134 171 216V237H157V216Z" fill="#C6FF00"/>
<path d="M192 201C192 197.134 195.134 194 199 194C202.866 194 206 197.134 206 201V237H192V201Z" fill="#C6FF00" fill-opacity="0.09"/>
<path d="M192 210C192 206.134 195.134 203 199 203C202.866 203 206 206.134 206 210V237H192V210Z" fill="#C6FF00"/>
<path d="M227 201C227 197.134 230.134 194 234 194C237.866 194 241 197.134 241 201V237H227V201Z" fill="#C6FF00" fill-opacity="0.09"/>
<path d="M227 210C227 206.134 230.134 203 234 203C237.866 203 241 206.134 241 210V237H227V210Z" fill="#C6FF00"/>
<path d="M262 214C262 210.134 265.134 207 269 207C272.866 207 276 210.134 276 214V237H262V214Z" fill="#C6FF00" fill-opacity="0.09"/>
<path d="M262 220C262 216.134 265.134 213 269 213C272.866 213 276 216.134 276 220V237H262V220Z" fill="#C6FF00"/>
<path d="M297 198C297 194.134 300.134 191 304 191C307.866 191 311 194.134 311 198V237H297V198Z" fill="#C6FF00" fill-opacity="0.09"/>
<path d="M297 208C297 204.134 300.134 201 304 201C307.866 201 311 204.134 311 208V237H297V208Z" fill="#C6FF00"/>
<path d="M332 168C332 164.134 335.134 161 339 161C342.866 161 346 164.134 346 168V237H332V168Z" fill="#C6FF00" fill-opacity="0.09"/>
<path d="M332 184C332 180.134 335.134 177 339 177C342.866 177 346 180.134 346 184V237H332V184Z" fill="#C6FF00"/>
<path d="M367 179C367 175.134 370.134 172 374 172C377.866 172 381 175.134 381 179V237H367V179Z" fill="#C6FF00" fill-opacity="0.09"/>
<path d="M367 192C367 188.134 370.134 185 374 185C377.866 185 381 188.134 381 192V237H367V192Z" fill="#C6FF00"/>
<path d="M402 193C402 189.134 405.134 186 409 186C412.866 186 416 189.134 416 193V237H402V193Z" fill="#C6FF00" fill-opacity="0.09"/>
<path d="M402 204C402 200.134 405.134 197 409 197C412.866 197 416 200.134 416 204V237H402V204Z" fill="#C6FF00"/>
<path d="M437 173C437 169.134 440.134 166 444 166C447.866 166 451 169.134 451 173V237H437V173Z" fill="#C6FF00" fill-opacity="0.09"/>
<path d="M437 188C437 184.134 440.134 181 444 181C447.866 181 451 184.134 451 188V237H437V188Z" fill="#C6FF00"/>
<path d="M472 147C472 143.134 475.134 140 479 140C482.866 140 486 143.134 486 147V237H472V147Z" fill="#C6FF00" fill-opacity="0.09"/>
<path d="M472 167C472 163.134 475.134 160 479 160C482.866 160 486 163.134 486 167V237H472V167Z" fill="#C6FF00"/>
<path d="M507 127C507 123.134 510.134 120 514 120C517.866 120 521 123.134 521 127V237H507V127Z" fill="#C6FF00" fill-opacity="0.09"/>
<path d="M507 146C507 142.134 510.134 139 514 139C517.866 139 521 142.134 521 146V237H507V146Z" fill="#C6FF00"/>
<defs>
<filter id="filter0_f_138_11781" x="419.5" y="0.5" width="176" height="176" filterUnits="userSpaceOnUse" color-interpolation-filters="sRGB">
<feFlood flood-opacity="0" result="BackgroundImageFix"/>
<feBlend mode="normal" in="SourceGraphic" in2="BackgroundImageFix" result="shape"/>
<feGaussianBlur stdDeviation="37.25" result="effect1_foregroundBlur_138_11781"/>
</filter>
<filter id="filter1_f_138_11781" x="479.5" y="59.5" width="64" height="64" filterUnits="userSpaceOnUse" color-interpolation-filters="sRGB">
<feFlood flood-opacity="0" result="BackgroundImageFix"/>
<feBlend mode="normal" in="SourceGraphic" in2="BackgroundImageFix" result="shape"/>
<feGaussianBlur stdDeviation="13.75" result="effect1_foregroundBlur_138_11781"/>
</filter>
<linearGradient id="paint0_linear_138_11781" x1="82.3932" y1="177.5" x2="500.244" y2="43.6319" gradientUnits="userSpaceOnUse">
<stop stop-color="#141414" stop-opacity="0.92"/>
<stop offset="1" stop-color="white"/>
</linearGradient>
</defs>
</svg>
